<?xml version="1.0" encoding="utf-8"?>
<!-- Generator: Adobe Illustrator 26.2.1, SVG Export Plug-In . SVG Version: 6.00 Build 0)  -->
<svg version="1.1" id="Layer_1" xmlns="http://www.w3.org/2000/svg" xmlns:xlink="http://www.w3.org/1999/xlink" x="0px" y="0px"
	 viewBox="0 0 90 90" style="enable-background:new 0 0 90 90;" xml:space="preserve">
<style type="text/css">
	.st0{fill:#FFFFFF;}
</style>
<g id="Layer_2_1_">
	<g id="Layer_5">
		<path class="st0" d="M66,31.2H24c-0.6,0-1,0.5-1,1c0,0.6,0.5,1,1,1h42c0.6,0,1-0.5,1-1S66.6,31.2,66,31.2z"/>
		<path class="st0" d="M66,44H24c-0.6,0-1,0.4-1,1s0.4,1,1,1h42c0.6,0,1-0.4,1-1S66.6,44,66,44z"/>
		<path class="st0" d="M66,56.7H24c-0.6,0-1,0.5-1,1s0.5,1,1,1h42c0.6,0,1-0.5,1-1S66.6,56.7,66,56.7z"/>
	</g>
</g>
</svg>
