<?xml version="1.0" encoding="utf-8"?>
<!-- Generator: Adobe Illustrator 26.2.1, SVG Export Plug-In . SVG Version: 6.00 Build 0)  -->
<svg version="1.1" id="Layer_1" xmlns="http://www.w3.org/2000/svg" xmlns:xlink="http://www.w3.org/1999/xlink" x="0px" y="0px"
	 viewBox="0 0 95 95" style="enable-background:new 0 0 95 95;" xml:space="preserve">
<style type="text/css">
	.st0{fill:#FFFFFF;}
</style>
<g id="Layer_1_00000049194076614437065150000000196291292236724615_">
	<path class="st0" d="M63.3,45L40.2,29.6c-1.4-0.9-3.3-0.5-4.1,0.9c-0.3,0.5-0.5,1-0.5,1.6v30.8c0,1.7,1.4,3,3,3
		c0.6,0,1.1-0.2,1.6-0.5L63.3,50c1.4-0.9,1.8-2.8,0.8-4.2C63.9,45.5,63.6,45.2,63.3,45z"/>
	<path class="st0" d="M47.5,0C21.3,0,0,21.3,0,47.5S21.3,95,47.5,95S95,73.7,95,47.5C95,21.3,73.7,0,47.5,0z M47.5,87.6
		c-22.1,0-40.1-18-40.1-40.1s18-40.1,40.1-40.1s40.1,18,40.1,40.1l0,0C87.6,69.6,69.6,87.6,47.5,87.6z"/>
</g>
</svg>
