<?xml version="1.0" encoding="utf-8"?>
<!-- Generator: Adobe Illustrator 26.2.1, SVG Export Plug-In . SVG Version: 6.00 Build 0)  -->
<svg version="1.1" id="Layer_1" xmlns="http://www.w3.org/2000/svg" xmlns:xlink="http://www.w3.org/1999/xlink" x="0px" y="0px"
	 viewBox="0 0 172.6 177.2" style="enable-background:new 0 0 172.6 177.2;" xml:space="preserve">
<style type="text/css">
	.st0{display:none;}
	.st1{display:inline;}
	.st2{fill:#FFFFFF;}
</style>
<g id="Layer_2" class="st0">
	<rect x="-15.6" y="-15.4" class="st1" width="263.4" height="241.4"/>
</g>
<g>
	<path class="st2" d="M96.6,118.5l-15.2-11.8c-0.9-0.7-2.2-0.4-2.7,0.7c-0.2,0.4-0.3,0.8-0.3,1.2v23.5c0,1.3,0.9,2.3,2,2.3
		c0.4,0,0.7-0.2,1.1-0.4l15.2-11.8c0.9-0.7,1.2-2.1,0.5-3.2C97,118.9,96.8,118.6,96.6,118.5z"/>
</g>
<g>
	<path class="st2" d="M59.7,83.6h-5l-6.5-7.5h-4.1v7.5h-4.2V61.1c3.6,0,7.1,0,10.7,0c5.3,0,8.1,3.6,8.1,7.4c0,3.1-1.4,6.2-5.7,7
		l6.8,7.6V83.6z M44.1,65.1v7.2h6.4c2.7,0,3.8-1.8,3.8-3.6s-1.2-3.6-3.8-3.6H44.1z"/>
	<path class="st2" d="M84.5,83.6H67.7c0-7.5,0-14.9,0-22.4h16.8v4.1H71.9v5.2h12.1v3.9H71.9v5.1h12.6V83.6z"/>
	<path class="st2" d="M110.9,83.6H94.1c0-7.5,0-14.9,0-22.4h16.8v4.1H98.3v5.2h12.1v3.9H98.3v5.1h12.6V83.6z"/>
	<path class="st2" d="M124.8,61.2v18.5h11.5v3.9h-15.7V61.2H124.8z"/>
</g>
<g>
	<path class="st2" d="M85.7,163.9c-43.1,0-78.2-35.1-78.2-78.2S42.6,7.5,85.7,7.5s78.2,35.1,78.2,78.2S128.8,163.9,85.7,163.9z
		 M85.7,10.5c-41.5,0-75.2,33.7-75.2,75.2s33.7,75.2,75.2,75.2s75.2-33.7,75.2-75.2S127.2,10.5,85.7,10.5z"/>
</g>
</svg>
